<?xml version="1.0" encoding="UTF-8"?>
<svg version="1.1" viewBox="0 0 128 128" xmlns="http://www.w3.org/2000/svg">
<defs>
<linearGradient id="a" x1="4" x2="60" y1="17" y2="17" gradientTransform="translate(0,-2)" gradientUnits="userSpaceOnUse">
<stop stop-color="#5e5c64" offset="0"/>
<stop stop-color="#9a9996" offset=".035714"/>
<stop stop-color="#5e5c64" offset=".071429"/>
<stop stop-color="#5e5c64" offset=".92857"/>
<stop stop-color="#9a9996" offset=".96429"/>
<stop stop-color="#5e5c64" offset="1"/>
</linearGradient>
</defs>
<g transform="matrix(2,0,0,2,0,34)">
<rect x="4" y="-1" width="56" height="34" ry="2" fill="url(#a)"/>
<rect x="4" y="-3" width="56" height="34" ry="2" fill="#9a9996"/>
<rect x="6" y="-1" width="4" height="6" ry="2" fill="#3d3846"/>
<rect x="6" y="-1" width="4" height="4" ry="2" fill="#5e5c64"/>
<rect x="6" y="9" width="6" height="4" fill="#3d3846"/>
<rect x="6" y="7" width="6" height="4" fill="#5e5c64"/>
<rect x="6" y="17" width="8" height="4" fill="#3d3846"/>
<rect x="6" y="15" width="8" height="4" fill="#5e5c64"/>
<rect x="6" y="25" width="4" height="4" fill="#3d3846"/>
<rect x="6" y="23" width="4" height="4" fill="#5e5c64"/>
<rect x="12" y="25" width="4" height="4" fill="#3d3846"/>
<rect x="12" y="23" width="4" height="4" fill="#5e5c64"/>
<rect x="18" y="25" width="28" height="4" fill="#3d3846"/>
<rect x="18" y="23" width="28" height="4" fill="#5e5c64"/>
<rect x="48" y="25" width="4" height="4" fill="#3d3846"/>
<rect x="48" y="23" width="4" height="4" fill="#5e5c64"/>
<rect x="54" y="25" width="4" height="4" fill="#3d3846"/>
<rect x="54" y="23" width="4" height="4" fill="#5e5c64"/>
<rect x="14" y="9" width="4" height="4" fill="#3d3846"/>
<rect x="14" y="7" width="4" height="4" fill="#5e5c64"/>
<rect x="20" y="9" width="4" height="4" fill="#3d3846"/>
<rect x="20" y="7" width="4" height="4" fill="#5e5c64"/>
<rect x="26" y="9" width="4" height="4" fill="#3d3846"/>
<rect x="26" y="7" width="4" height="4" fill="#5e5c64"/>
<rect x="32" y="9" width="4" height="4" fill="#3d3846"/>
<rect x="32" y="7" width="4" height="4" fill="#5e5c64"/>
<rect x="38" y="9" width="4" height="4" fill="#3d3846"/>
<rect x="38" y="7" width="4" height="4" fill="#5e5c64"/>
<rect x="44" y="9" width="4" height="4" fill="#3d3846"/>
<rect x="44" y="7" width="4" height="4" fill="#5e5c64"/>
<rect x="16" y="17" width="4" height="4" fill="#3d3846"/>
<rect x="16" y="15" width="4" height="4" fill="#5e5c64"/>
<rect x="22" y="17" width="4" height="4" fill="#3d3846"/>
<rect x="22" y="15" width="4" height="4" fill="#5e5c64"/>
<rect x="28" y="17" width="4" height="4" fill="#3d3846"/>
<rect x="28" y="15" width="4" height="4" fill="#5e5c64"/>
<rect x="34" y="17" width="4" height="4" fill="#3d3846"/>
<rect x="34" y="15" width="4" height="4" fill="#5e5c64"/>
<rect x="40" y="17" width="4" height="4" fill="#3d3846"/>
<rect x="40" y="15" width="4" height="4" fill="#5e5c64"/>
<rect x="46" y="17" width="4" height="4" fill="#3d3846"/>
<rect x="46" y="15" width="4" height="4" fill="#5e5c64"/>
<rect x="50" y="9" width="8" height="4" fill="#3d3846"/>
<rect x="50" y="7" width="8" height="4" fill="#5e5c64"/>
<rect x="52" y="17" width="6" height="4" fill="#3d3846"/>
<rect x="52" y="15" width="6" height="4" fill="#5e5c64"/>
<rect x="12" y="-1" width="4" height="6" ry="2" fill="#3d3846"/>
<rect x="12" y="-1" width="4" height="4" ry="2" fill="#5e5c64"/>
<rect x="18" y="-1" width="4" height="6" ry="2" fill="#3d3846"/>
<rect x="18" y="-1" width="4" height="4" ry="2" fill="#5e5c64"/>
<rect x="24" y="-1" width="4" height="6" ry="2" fill="#3d3846"/>
<rect x="24" y="-1" width="4" height="4" ry="2" fill="#5e5c64"/>
<rect x="30" y="-1" width="4" height="6" ry="2" fill="#3d3846"/>
<rect x="30" y="-1" width="4" height="4" ry="2" fill="#5e5c64"/>
<rect x="36" y="-1" width="4" height="6" ry="2" fill="#3d3846"/>
<rect x="36" y="-1" width="4" height="4" ry="2" fill="#5e5c64"/>
<rect x="42" y="-1" width="4" height="6" ry="2" fill="#3d3846"/>
<rect x="42" y="-1" width="4" height="4" ry="2" fill="#5e5c64"/>
<rect x="48" y="-1" width="4" height="6" ry="2" fill="#3d3846"/>
<rect x="48" y="-1" width="4" height="4" ry="2" fill="#5e5c64"/>
<rect x="54" y="-1" width="4" height="6" ry="2" fill="#3d3846"/>
<rect x="54" y="-1" width="4" height="4" ry="2" fill="#5e5c64"/>
</g>
</svg>
