<svg xmlns="http://www.w3.org/2000/svg" width="16" height="16">
  <path d="M 8 0 C 3.581722 0 0 3.581722 0 8 C 0 12.418278 3.581722 16 8 16 C 8.6752049 15.9962 9.3472143 15.90696 10 15.734375 L 10 13.650391 C 9.3580344 13.879696 8.6816864 13.997925 8 14 C 4.6862915 14 2 11.313708 2 8 C 2 4.6862915 4.6862915 2 8 2 C 11.313708 2 14 4.6862915 14 8 C 13.9973 8.6817991 13.878408 9.3581503 13.648438 10 L 15.740234 10 C 15.910846 9.3469609 15.998128 8.6749555 16 8 C 16 3.581722 12.418278 0 8 0 z M 7.5 3 L 7.5 7.1347656 A 1 1 0 0 0 7 8 A 1 1 0 0 0 7.0351562 8.2578125 L 3.6464844 11.646484 L 4.3535156 12.353516 L 7.7421875 8.9648438 A 1 1 0 0 0 8 9 A 1 1 0 0 0 8.8632812 8.5 L 11 8.5 L 11 7.5 L 8.8652344 7.5 A 1 1 0 0 0 8.5 7.1367188 L 8.5 3 L 7.5 3 z M 11 11 L 11 16 L 16 16 L 16 11 L 11 11 z M 12 12 L 13 12 L 13 13 L 14 13 L 14 12 L 15 12 L 15 14 L 14 14 L 14 15 L 13 15 L 13 14 L 12 14 L 12 12 z " fill="#c0bfbc" />
</svg>
