<?xml version="1.0" encoding="UTF-8" standalone="no"?>
<svg
   xmlns:dc="http://purl.org/dc/elements/1.1/"
   xmlns:cc="http://creativecommons.org/ns#"
   xmlns:rdf="http://www.w3.org/1999/02/22-rdf-syntax-ns#"
   xmlns:svg="http://www.w3.org/2000/svg"
   xmlns="http://www.w3.org/2000/svg"
   id="svg4"
   version="1.1"
   height="16"
   width="16">
  <metadata
     id="metadata10">
    <rdf:RDF>
      <cc:Work
         rdf:about="">
        <dc:format>image/svg+xml</dc:format>
        <dc:type
           rdf:resource="http://purl.org/dc/dcmitype/StillImage" />
        <dc:title></dc:title>
      </cc:Work>
    </rdf:RDF>
  </metadata>
  <defs
     id="defs8" />
  <path
     id="path2"
     d="M 1 2 C 0.446 2 0 2.446 0 3 L 0 12 C 0 12.554 0.446 13 1 13 L 10 13 L 10 11 L 4 11 L 4 10 L 10 10 L 12 10 L 13 10 L 14 10 L 16 10 L 16 3 C 16 2.446 15.554 2 15 2 L 1 2 z M 2 4 L 4 4 L 4 5 L 2 5 L 2 4 z M 5 4 L 6 4 L 6 5 L 5 5 L 5 4 z M 7 4 L 8 4 L 8 5 L 7 5 L 7 4 z M 9 4 L 10 4 L 10 5 L 9 5 L 9 4 z M 11 4 L 12 4 L 12 5 L 11 5 L 11 4 z M 13 4 L 14 4 L 14 5 L 13 5 L 13 4 z M 2 6 L 3 6 L 3 7 L 2 7 L 2 6 z M 4 6 L 5 6 L 5 7 L 4 7 L 4 6 z M 6 6 L 7 6 L 7 7 L 6 7 L 6 6 z M 8 6 L 9 6 L 9 7 L 8 7 L 8 6 z M 10 6 L 11 6 L 11 7 L 10 7 L 10 6 z M 12 6 L 14 6 L 14 7 L 12 7 L 12 6 z M 2 8 L 4 8 L 4 9 L 2 9 L 2 8 z M 5 8 L 6 8 L 6 9 L 5 9 L 5 8 z M 7 8 L 8 8 L 8 9 L 7 9 L 7 8 z M 9 8 L 10 8 L 10 9 L 9 9 L 9 8 z M 11 8 L 14 8 L 14 9 L 11 9 L 11 8 z M 2 10 L 3 10 L 3 11 L 2 11 L 2 10 z M 11 11 L 11 16 L 16 16 L 16 11 L 11 11 z M 12 12 L 13 12 L 13 13 L 14 13 L 14 12 L 15 12 L 15 14 L 14 14 L 14 15 L 13 15 L 13 14 L 12 14 L 12 12 z "
     style="fill:#c0bfbc" />
</svg>
