<svg xmlns="http://www.w3.org/2000/svg" width="16" height="16">
  <path  d="M 5 0 C 4.446 0 4 0.446 4 1 L 4 12 C 4 12.554 4.446 13 5 13 L 10 13 L 10 10 L 12.457031 10 L 11.384766 7.5 L 8.6152344 7.5 L 7.4589844 10.197266 L 6.5410156 9.8027344 L 10 1.7304688 L 13.458984 9.8027344 L 13 10 L 16 10 L 16 1 C 16 0.446 15.554 0 15 0 L 5 0 z M 1 3 C 0.446 3 0 3.446 0 4 L 0 15 C 0 15.554 0.446 16 1 16 L 10 16 L 10 14 L 3 14 L 2 14 L 2 5 L 3 5 L 3 3 L 1 3 z M 10 4.2675781 L 9.0429688 6.5 L 10.957031 6.5 L 10 4.2675781 z M 11 11 L 11 16 L 16 16 L 16 11 L 11 11 z M 12 12 L 13 12 L 13 13 L 14 13 L 14 12 L 15 12 L 15 14 L 14 14 L 14 15 L 13 15 L 13 14 L 12 14 L 12 12 z " fill="#c0bfbc" />
</svg>
